<svg xmlns="http://www.w3.org/2000/svg" viewBox="0 0 109.34 172.31"><defs><style>.cls-1{isolation:isolate;}.cls-2,.cls-6{fill:#f1f9fe;}.cls-3{fill:#e89c29;}.cls-4{fill:#e07226;opacity:0.3;}.cls-4,.cls-5{mix-blend-mode:multiply;}.cls-5{fill:#f2f2f2;}.cls-6{mix-blend-mode:screen;opacity:0.2;}.cls-7{fill:#faf6cb;}.cls-8{fill:#fffbd4;}</style></defs><g class="cls-1"><g id="Calque_2" data-name="Calque 2"><g id="Logo_version_mini" data-name="Logo version mini"><g id="Bierre"><g id="Verre_de_bierre" data-name="Verre de bierre"><path class="cls-2" d="M82.77,127c6.63-38.83,11.6-67.91,11.6-67.91,2.48.19,3.06-4.48-.44-4.48L59.25,48.68,24.58,42.76c-3.11-1.15-4.47,3.36-1.91,4.08,0,0-5,29.08-11.6,67.91S-1.72,146.13.82,155.27C5.55,167,70.55,178.1,79,168.63,84.41,160.85,76.13,165.84,82.77,127Z"/><path class="cls-3" d="M92.5,58.77l0-.3L24.59,46.86C21.39,63.67,12,128,6.61,141.33c0,0-1.39,9.49,34.16,15.56s37.38-3.34,37.38-3.34C77.44,139.53,90,75.34,92.5,58.77Z"/><path class="cls-4" d="M80.9,126.68c0-.42,11.66-67.85,11.62-68.21l-6.69-1.15C80.12,81,80.69,113.82,70.3,138c-15.89,20.14-50.54,15.32-60.27-8.4a105.07,105.07,0,0,1-3.42,11.74s-1.39,9.49,34.16,15.56,37.38-3.34,37.38-3.34C78.09,148.15,78.64,139.93,80.9,126.68Z"/><path class="cls-5" d="M82.77,127c6.63-38.83,11.6-67.91,11.6-67.91a2,2,0,0,0,2-1.85c.36-3.2-3.48-2.52-5.34-3.12C83.39,73.9,81.39,95.4,77.88,116.19c-.86,13.21-.72,28.52-10.2,39C55.94,169,36,167.15,21.4,159c-6.68-3.86-14.62-5.6-18.95-12.7-13.71,17.35,34.6,22.55,36.18,23.15,0,0,34.93,7,40.35-.79S76.13,165.84,82.77,127Z"/><path class="cls-6" d="M21.93,130.44c.36,2.48.48,5.19,2.33,7L40.51,42.28l-5-.87C35,45.6,19.35,129.29,21.93,130.44Z"/><path class="cls-6" d="M34.67,126.88c.43,2,.85,4.18,2.59,5.43A197.69,197.69,0,0,0,49.55,60.39l-5-.86C44.22,63,32.08,125.57,34.67,126.88Z"/><path class="cls-7" d="M89.75,74.89c0-.37,2.81-16.06,2.77-16.42L24.59,46.86l-2.8,16.42Z"/></g><g id="Mousse"><path class="cls-8" d="M17.86,52.81c-2.51,10.45,7.69,20.34,18,17.53,4.59,7.25,15.32,8.79,21.81,3.18C64.21,78,73.65,73.3,74,65.41a10.62,10.62,0,0,0,7.47-4.67c9.44,4.83,20.77-4.47,17.94-14.66C119,39.12,106.63,9.76,88,18.91c-4.13-15.52-27-17.54-33.82-3C43.73,6.06,25.32,12.72,23.75,27,7,23.6,1.3,48.69,17.86,52.81Zm43.06,4.7c-4.36,1.82-7.34,7.23-5.52,11.59-4.94-11.38,13-18.88,17.65-7.37C71.23,57.37,65.28,55.69,60.92,57.51ZM83.23,37.25a10.92,10.92,0,0,1,14.19,6.09c-5-11.63-24.66-3.78-20.28,8.09A10.92,10.92,0,0,1,83.23,37.25Z"/><path class="cls-8" d="M72.75,56C61,44.89,45.87,61.53,55.27,72.85c-1.84,4-.84,7.6,1.27,11.53-4.66,9,10.82,11.43,7,1.21,4.38-1.92,7.91-6.75,5.08-11.42C75,71.56,77.9,61.14,72.75,56Z"/><path class="cls-8" d="M67,9.47a6.16,6.16,0,0,0-6.08.54c-3.62-4.47-9.9-3.85-13.8-.4C43.62,1.33,30.82-3.75,23.56,3.43c-5.22,5.7-3.76,18.18,3.91,20.43C22.28,39.56,45.05,45.4,47.74,27c4.55-.3,9.68-.94,12.25-5.42.82-1.24,1.24-.25,3-.36C70.35,21.63,74.85,12.69,67,9.47Z"/></g></g></g></g></g></svg>