<svg xmlns="http://www.w3.org/2000/svg" viewBox="0 0 382.15 172.14"><defs><style>.cls-1{isolation:isolate;}.cls-2,.cls-6{fill:#f1f9fe;}.cls-3{fill:#e89c29;}.cls-4{fill:#e07226;opacity:0.3;}.cls-4,.cls-5{mix-blend-mode:multiply;}.cls-5{fill:#f2f2f2;}.cls-6{mix-blend-mode:screen;opacity:0.2;}.cls-7{fill:#faf6cb;}.cls-8{fill:#fffbd4;}.cls-9{fill:#f9f19a;}.cls-10{fill:none;stroke:#e89c29;stroke-linejoin:round;stroke-width:1.5px;}</style></defs><g class="cls-1"><g id="Calque_2" data-name="Calque 2"><g id="VECTORISE"><g id="Bierre"><g id="Verre_de_bierre" data-name="Verre de bierre"><path class="cls-2" d="M82.53,126.84,94.14,58.93a2,2,0,0,0,2-1.85c.34-2-1.34-2.44-2.48-2.63L59,48.52,24.34,42.6c-1.14-.2-2.87-.34-3.21,1.65a2,2,0,0,0,1.31,2.43s-5,29.08-11.6,67.91S-1.95,146,.58,155.11s37.81,14.15,37.81,14.15,34.93,7,40.36-.79S75.9,165.67,82.53,126.84Z"/><path class="cls-3" d="M92.27,58.61V58.3L24.36,46.7,12.71,114.91c-2.27,13.25-4.48,21.18-6.33,26.26,0,0-1.39,9.48,34.15,15.56s37.38-3.34,37.38-3.34c-.06-5.4.49-13.62,2.76-26.87Z"/><path class="cls-4" d="M80.67,126.52l11.6-67.91V58.3L85.6,57.16c-.48,3-1,6-1.46,8.93-1.29,7.89-2.59,15.78-4,23.65-1,5.29-4.23,41.13-10.08,48.08a35.87,35.87,0,0,1-60.26-8.4,106.89,106.89,0,0,1-3.42,11.75S5,150.65,40.53,156.73s37.38-3.34,37.38-3.34C77.85,148,78.4,139.77,80.67,126.52Z"/><path class="cls-5" d="M82.53,126.84,94.14,58.93a2,2,0,0,0,2-1.85c.34-2-1.34-2.44-2.48-2.63L90.84,54c-1,2.47-2,5-2.81,7.51a236.9,236.9,0,0,0-5.36,23.71c-1,5.59-1.9,11.2-2.79,16.81-.74,4.65-1.8,9.35-2.23,14-.61,6.72-.37,13.54-1.79,20.16-1.33,6.22-3.67,14.17-8.41,18.84-1.72,1.69-3.58,3.94-5.85,5.16-6.34,3.43-5.88,3.35-13,4.85a27.64,27.64,0,0,1-10.68-.25,65.36,65.36,0,0,1-16.78-6,100.57,100.57,0,0,0-9.26-4.56,21.77,21.77,0,0,1-9.69-8.15c-2,4-2.88,4.49-1.63,9,2.54,9.15,37.81,14.15,37.81,14.15s34.93,7,40.36-.79S75.9,165.67,82.53,126.84Z"/><path class="cls-6" d="M21.7,130.28c.15,1.24.33,2.44.54,3.59.24.76.5,1.48.77,2.16.33.45.67.86,1,1.24L40.28,42.11l-5.05-.86-13.67,80C21.54,124.34,21.57,127.37,21.7,130.28Z"/><path class="cls-6" d="M34.44,126.72c.2,1,.43,1.88.68,2.76.27.59.56,1.15.86,1.68a12.11,12.11,0,0,0,1.05,1c.5-1.34,1-2.69,1.46-4.05A197.9,197.9,0,0,0,49.31,60.23l-5-.87L33.94,119.83C34,122.19,34.19,124.5,34.44,126.72Z"/><polygon class="cls-7" points="89.51 74.73 92.27 58.61 92.28 58.3 24.36 46.7 21.55 63.12 89.51 74.73"/></g><g id="Mousse"><path class="cls-8" d="M17.63,52.64l-.13.69A14.77,14.77,0,0,0,35.24,70.27l.44-.09.26.36a14.77,14.77,0,0,0,21.18,3.1l.37-.29.39.24A10.46,10.46,0,0,0,73.6,66.37c0-.14,0-.29.06-.43l.07-.69.5-.09A10.41,10.41,0,0,0,80.89,61l.32-.43.49.21a12.74,12.74,0,0,0,17.65-9.58,12.56,12.56,0,0,0-.09-4.73l-.11-.56.53-.21A14.76,14.76,0,0,0,97,17.34a14.58,14.58,0,0,0-8.57,1.11l-.68.3-.24-.7a18.25,18.25,0,0,0-33.19-3l-.4.71-.62-.52a18.24,18.24,0,0,0-29.64,11l-.12.66-.66-.11A13.21,13.21,0,0,0,17,52.47Zm43.06,4.71c-4.36,1.82-7.34,7.23-5.52,11.59a9.56,9.56,0,1,1,17.65-7.37C71,57.21,65.05,55.53,60.69,57.35ZM83,37.08a10.94,10.94,0,0,1,14.19,6.1c-2-5-8.76-7-13.77-5s-8.52,8.12-6.51,13.13A10.93,10.93,0,0,1,83,37.08Z"/><path class="cls-8" d="M72.51,55.86c-6.42-5.48-15.46-5-18.93,3.19-1.45,3.42-2.14,7.93-.21,11.3A12.7,12.7,0,0,0,55,72.69a12.35,12.35,0,0,0-.7,1.88,12.75,12.75,0,0,0,.49,6.54c.14.45.81,1.76,1.48,3.11a6.43,6.43,0,0,0-.64,1.84c-.6,3.27.92,5.82,4.34,6.17a3.2,3.2,0,0,0,3.33-1.74,5.83,5.83,0,0,0,0-5.06,4.1,4.1,0,0,1,1-.52,13.25,13.25,0,0,0,4-3.45c1.6-2.06,1.41-5.22.16-7.45,2.94-1.59,5.22-3.4,6-7.06C75.15,63.13,75.93,58.76,72.51,55.86Z"/><path class="cls-8" d="M66.79,9.31a6.15,6.15,0,0,0-6.08.54c-1.78-1.8-3.93-3.27-6.48-3.28-3,0-5.12,1.34-7.32,2.88C44.37,6.18,43.17,2.51,38.31,1c-4.54-1.38-11.51-2-15,2.24A14.4,14.4,0,0,0,21,17c1.34,4.07,3.36,5.57,6.24,6.69-4,9.59,8.2,21.87,17.53,10a18,18,0,0,0,2.16-4,6.88,6.88,0,0,0,.46-2.24c.06-.27.1-.5.13-.7,3.23-.48,6.34-.18,9.24-2.31a9.72,9.72,0,0,0,3-3.11c.82-1.24,1.24-.25,3-.36,3.09-.19,5.33-.73,7-3.28A6.91,6.91,0,0,0,71,15.52C71.8,12.73,68.89,10.34,66.79,9.31Z"/></g></g><g id="DrinX"><path class="cls-3" d="M156.27,42a28.52,28.52,0,0,1,14,3.23,25.45,25.45,0,0,1,9.25,8.57A29.81,29.81,0,0,1,183.93,66a40.82,40.82,0,0,1-.69,14.25,51.76,51.76,0,0,1-5.73,14.54,52.9,52.9,0,0,1-10.77,13.17,60,60,0,0,1-16,10.08,70.67,70.67,0,0,1-21.24,5.39,9.65,9.65,0,0,1-.74,2.55,1.79,1.79,0,0,1-1.71,1.17,8.59,8.59,0,0,1-2.84-.93,25.45,25.45,0,0,1-4-2.3,16.07,16.07,0,0,1-6.56-1.18,15,15,0,0,1-4.16-2.59,6,6,0,0,1-1.81-2.55c-.19-.75,0-1.12.49-1.12a6.81,6.81,0,0,1,2,.24,13.28,13.28,0,0,1,1.52.59,9.45,9.45,0,0,0,1.66.59,9.87,9.87,0,0,0,2.4.24.87.87,0,0,0,.34-.05,1.23,1.23,0,0,1,.35,0q.58-1.56,2.39-5.63t4.36-9.59q2.55-5.53,5.58-12.24T134.63,77Q137.47,70,140,63.34T144,51a71.78,71.78,0,0,0-11.46,7.09,66.93,66.93,0,0,0-10.13,9.31,49.88,49.88,0,0,0-7.25,10.57,23.92,23.92,0,0,0-2.79,10.82,12.91,12.91,0,0,0,.34,3.33,9.61,9.61,0,0,0,.69,1.81,5.73,5.73,0,0,0,.69,1,1.46,1.46,0,0,1,.34,1c0,.91-.62,1.21-1.86.88a9.9,9.9,0,0,1-4.07-2.6,20,20,0,0,1-4-5.92,21.57,21.57,0,0,1-1.81-9.3,13.93,13.93,0,0,1,1.52-5.73,35.23,35.23,0,0,1,4.3-6.85,61.12,61.12,0,0,1,6.71-7.2A66.69,66.69,0,0,1,124,52.42a75.46,75.46,0,0,1,10.29-5.58,57.41,57.41,0,0,1,11.45-3.72c.07-.52.11-1,.15-1.56s0-1.05,0-1.57a1.75,1.75,0,0,1,1-1.86,4.08,4.08,0,0,1,2.5,0,10.51,10.51,0,0,1,3.09,1.47A15.89,15.89,0,0,1,155.29,42Zm-22.43,72.26a56.71,56.71,0,0,0,13.27-6.66,69.79,69.79,0,0,0,11.21-9.4,71.29,71.29,0,0,0,8.72-11,60.1,60.1,0,0,0,5.82-11.5,40.2,40.2,0,0,0,2.5-10.92,20.58,20.58,0,0,0-1.18-9.2A13,13,0,0,0,169,49.19q-3.67-2.34-9.75-2.35h0c-.39,1.24-1.19,3.45-2.4,6.61s-2.62,6.86-4.26,11.07-3.36,8.73-5.18,13.56L142,92.18l-4.8,12.68Q135,110.68,133.84,114.21Z"/><path class="cls-3" d="M221.86,90.41c.53-.78.95-1.07,1.28-.88a1.91,1.91,0,0,1,.73,1.18,6.16,6.16,0,0,1,.2,1.91,3.2,3.2,0,0,1-.25,1.32q-1,1.47-2.64,4.4t-3.87,6.42q-2.2,3.48-4.75,7.15c-1.69,2.44-3.41,4.69-5.14,6.75a36.28,36.28,0,0,1-5.19,5.14,10.12,10.12,0,0,1-4.84,2.35.92.92,0,0,0-.25,0,1.16,1.16,0,0,1-.34,0,22.59,22.59,0,0,1-2.74-.29,16.43,16.43,0,0,1-4-1.18,10.32,10.32,0,0,1-3.52-2.45,5.26,5.26,0,0,1-1.27-4.21,19.79,19.79,0,0,1,1.76-6.26c1-2.42,2.15-4.83,3.33-7.25s2.25-4.67,3.23-6.76a15,15,0,0,0,1.57-4.6,4,4,0,0,0-.89-3.08,15.05,15.05,0,0,0-3-2.69c-.92,1.43-1.81,2.74-2.69,3.91s-1.59,2.12-2.11,2.84a.51.51,0,0,1-.78.2,2.73,2.73,0,0,1-.88-.93,4.38,4.38,0,0,1-.54-1.32,1.6,1.6,0,0,1,.14-1.18A23.24,23.24,0,0,0,186,88.6c.59-.94,1.27-2,2.06-3.08-1.12-.79-2.22-1.63-3.33-2.55A14.29,14.29,0,0,1,180,75.53a15.48,15.48,0,0,1-.35-5.48,14.85,14.85,0,0,1,2.4-7,27,27,0,0,1,4.85-5.63,23.24,23.24,0,0,1,5.63-3.72,12.17,12.17,0,0,1,4.85-1.32,4.17,4.17,0,0,1,3.57,2.2c.95,1.47,1.26,4,.93,7.49a33.19,33.19,0,0,1-2.2,9A86.16,86.16,0,0,1,195.53,80a31.4,31.4,0,0,0,4.06,2.69,33,33,0,0,1,4,2.59,12.1,12.1,0,0,1,2.94,3.14,7,7,0,0,1,.93,4.4,21.39,21.39,0,0,1-1.12,4.21q-1,3-2.35,6.76c-.89,2.48-1.8,5-2.75,7.54s-1.74,4.76-2.39,6.65-.36,2.75.49,2.75a4.43,4.43,0,0,0,2.69-1.62,41.19,41.19,0,0,0,3.57-4.21c1.31-1.73,2.69-3.69,4.16-5.87s2.92-4.41,4.36-6.66S217,98,218.29,95.9,220.82,92,221.86,90.41ZM190.92,69.66a11.83,11.83,0,0,0,.4,4.45,10.18,10.18,0,0,0,1.76,3.38,70.57,70.57,0,0,0,3.77-8,27.29,27.29,0,0,0,1.91-7.64,9.69,9.69,0,0,0-.2-4.21A1.64,1.64,0,0,0,197,56.54c-.59,0-1.23.45-1.91,1.37a16.34,16.34,0,0,0-1.91,3.38,31.28,31.28,0,0,0-1.52,4.25A19,19,0,0,0,190.92,69.66Z"/><path class="cls-3" d="M250.55,90.32c.52-.79.93-1.08,1.23-.89a1.71,1.71,0,0,1,.58,1.18,7.07,7.07,0,0,1,0,1.91,3.36,3.36,0,0,1-.29,1.32q-1,1.57-2.74,4.26T245.26,104q-2.34,3.24-5,6.61a78.87,78.87,0,0,1-5.48,6.22,39.76,39.76,0,0,1-5.44,4.7,11.17,11.17,0,0,1-4.89,2.15h-.59a20.83,20.83,0,0,1-2.74-.29,17.71,17.71,0,0,1-4-1.13,9.72,9.72,0,0,1-3.53-2.4,5.28,5.28,0,0,1-1.27-4.21,19.75,19.75,0,0,1,1.22-5c.75-2.15,1.67-4.55,2.74-7.2s2.22-5.36,3.43-8.17S222,89.86,223,87.38s1.92-4.64,2.64-6.46a18.13,18.13,0,0,0,1.18-3.72,1.56,1.56,0,0,1,1.86-1.67,8.3,8.3,0,0,1,3.72,1.27A17.21,17.21,0,0,1,236,79.69a4.46,4.46,0,0,1,1.52,3.18,18.64,18.64,0,0,1-.78,3q-.69,2.11-1.72,5t-2.3,6.27l-2.54,6.71c-.85,2.22-1.65,4.35-2.4,6.41s-1.39,3.84-1.91,5.34c-.53,1.76-.36,2.64.49,2.64a5.18,5.18,0,0,0,2.84-1.42,36.77,36.77,0,0,0,3.91-3.77q2.16-2.36,4.56-5.29c1.59-1.95,3.16-4,4.7-6.07l4.45-6.07Q249,92.66,250.55,90.32ZM237.33,69.66a10.64,10.64,0,0,1-3.13-.49,9.94,9.94,0,0,1-2.79-1.37,7.35,7.35,0,0,1-2-2.06,3.91,3.91,0,0,1-.63-2.45,10.19,10.19,0,0,1,1.41-4.06,16.51,16.51,0,0,1,3.09-3.82,19.37,19.37,0,0,1,4-2.84,8.63,8.63,0,0,1,4.07-1.12,6.47,6.47,0,0,1,4.7,1.71A5.92,5.92,0,0,1,247.61,58a14.26,14.26,0,0,1-1,3.57,17.3,17.3,0,0,1-2.21,3.82,13,13,0,0,1-3.18,3A6.78,6.78,0,0,1,237.33,69.66Z"/><path class="cls-3" d="M306,90.51c.52-.78.94-1.08,1.27-.88a1.92,1.92,0,0,1,.74,1.18,6.14,6.14,0,0,1,.19,1.9,3.1,3.1,0,0,1-.24,1.33q-1,1.47-2.79,4.21t-4.21,6c-1.6,2.19-3.32,4.44-5.14,6.75s-3.68,4.44-5.54,6.37a43,43,0,0,1-5.53,4.89,12.34,12.34,0,0,1-5,2.4,4.87,4.87,0,0,1-2.64-.19,12.57,12.57,0,0,1-3.68-1.67,11.4,11.4,0,0,1-3.13-3,6.35,6.35,0,0,1-1.13-4.31,19.88,19.88,0,0,1,1.38-5.29c.84-2.28,1.84-4.8,3-7.54s2.37-5.59,3.67-8.56,2.48-5.8,3.53-8.47q-1.86,1.95-4.46,4.89t-5.48,6.27q-2.89,3.33-5.83,6.8t-5.48,6.61q-2.55,3.14-4.36,5.68a28.75,28.75,0,0,0-2.49,4,6.24,6.24,0,0,0,.1,2.06,1.31,1.31,0,0,1-.49,1.37c-.4.33-1.21.36-2.45.1a12.85,12.85,0,0,1-7.25-4.65,6.42,6.42,0,0,1-1.27-4.55,17.71,17.71,0,0,1,1.17-4.7c.72-2,1.61-4.12,2.65-6.47s2.15-4.83,3.33-7.44,2.26-5.12,3.28-7.54,1.87-4.65,2.59-6.7a22.93,22.93,0,0,0,1.27-5,1.57,1.57,0,0,1,1.87-1.66,8.52,8.52,0,0,1,3.76,1.27,15.61,15.61,0,0,1,3.58,2.89A4.5,4.5,0,0,1,266.22,82a21.77,21.77,0,0,1-.83,3.19q-.74,2.29-1.91,5.38c-.79,2.06-1.65,4.29-2.6,6.71s-1.88,4.79-2.79,7.14q1.37-1.84,3.48-4.55l4.5-5.77q2.4-3.09,5-6.27c1.76-2.12,3.46-4.1,5.09-5.92s3.15-3.41,4.56-4.75a17.4,17.4,0,0,1,3.57-2.79,2.26,2.26,0,0,1,.78-.4,1.19,1.19,0,0,1,.49-.09,2.25,2.25,0,0,1,.79.09,9.21,9.21,0,0,1,2.64,1,14.61,14.61,0,0,1,2.69,1.86,11.3,11.3,0,0,1,2,2.26,3.52,3.52,0,0,1,.69,2.25,19.58,19.58,0,0,1-.84,3.13q-.74,2.25-1.86,5.43c-.75,2.13-1.6,4.41-2.54,6.86s-1.88,4.89-2.79,7.34-1.8,4.78-2.65,7-1.53,4.11-2.05,5.68-.2,2.16.58,2.16q1.58,0,4.56-3.14c2-2.09,4.14-4.61,6.46-7.59s4.6-6.07,6.85-9.3S304.34,92.86,306,90.51Z"/><path class="cls-9" d="M375.78,134a8,8,0,0,0,2.16-.64c.67-.3,1.27-.55,1.79-.75a2.14,2.14,0,0,1,1.23-.19c.29.07.43.38.44.94a5,5,0,0,1-.68,2.16,9.39,9.39,0,0,1-2.37,2.77A19,19,0,0,1,374,141a25.22,25.22,0,0,1-6.62,1.85,22.09,22.09,0,0,1-11.09-1.13,36.49,36.49,0,0,1-10.7-6.32,65.28,65.28,0,0,1-10.08-10.71,125.17,125.17,0,0,1-9.32-14.29,117.56,117.56,0,0,1-8.53,10.69,85.75,85.75,0,0,1-8.43,8.23,49.91,49.91,0,0,1-7.9,5.52,21.21,21.21,0,0,1-6.82,2.55,8.13,8.13,0,0,1-5.46-1c-1.7-1-2.74-2.69-3.13-5.18a2.74,2.74,0,0,1,.05-1.56,1.05,1.05,0,0,1,.89-.43,7,7,0,0,1,1.57.11,6.33,6.33,0,0,0,2.08,0,16.12,16.12,0,0,0,7-3.24,50.21,50.21,0,0,0,7.38-6.94,93.57,93.57,0,0,0,7.53-9.81q3.78-5.61,7.45-11.9a64.47,64.47,0,0,1-3.48-9.71c-1.14-3.95-2.3-8.14-3.51-12.56s-2.41-8.85-3.62-13.27a110,110,0,0,0-3.86-11.8A36.23,36.23,0,0,0,301,41.82q-2.32-3.09-5-2.67a15.78,15.78,0,0,0-7,3.18,36.06,36.06,0,0,0-6.76,6.77,57,57,0,0,0-5.87,9.38c-1.76,3.49-5.56-9.94-2.59-12.83a50.27,50.27,0,0,1,9.81-7.43,32.81,32.81,0,0,1,11.53-4.06,16.44,16.44,0,0,1,10.29,1.38,24.11,24.11,0,0,1,7.87,6.53,44.91,44.91,0,0,1,5.86,9.71,112.39,112.39,0,0,1,4.28,11q1.8,5.5,3.1,10.32c.85,3.21,1.63,5.75,2.32,7.63q4.43-9,8.26-17.76t6.53-15.87q2.7-7.17,4.16-11.93t1.28-5.93c-.22-1.4.29-2,1.52-1.73a12.44,12.44,0,0,1,4.32,2.07,24.46,24.46,0,0,1,4.66,4.29,10.39,10.39,0,0,1,2.57,5c.33,2.1-.2,5.18-1.6,9.26a125.85,125.85,0,0,1-5.87,13.93q-3.8,7.8-8.89,16.78T335.26,96.65A137.9,137.9,0,0,0,343.32,112a67.6,67.6,0,0,0,9.51,12.43,37.75,37.75,0,0,0,10.82,7.86A20.56,20.56,0,0,0,375.78,134Z"/><path class="cls-10" d="M375.78,134a8,8,0,0,0,2.16-.64c.67-.3,1.27-.55,1.79-.75a2.14,2.14,0,0,1,1.23-.19c.29.07.43.38.44.94a5,5,0,0,1-.68,2.16,9.39,9.39,0,0,1-2.37,2.77A19,19,0,0,1,374,141a25.22,25.22,0,0,1-6.62,1.85,22.09,22.09,0,0,1-11.09-1.13,36.49,36.49,0,0,1-10.7-6.32,65.28,65.28,0,0,1-10.08-10.71,125.17,125.17,0,0,1-9.32-14.29,117.56,117.56,0,0,1-8.53,10.69,85.75,85.75,0,0,1-8.43,8.23,49.91,49.91,0,0,1-7.9,5.52,21.21,21.21,0,0,1-6.82,2.55,8.13,8.13,0,0,1-5.46-1c-1.7-1-2.74-2.69-3.13-5.18a2.74,2.74,0,0,1,.05-1.56,1.05,1.05,0,0,1,.89-.43,7,7,0,0,1,1.57.11,6.33,6.33,0,0,0,2.08,0,16.12,16.12,0,0,0,7-3.24,50.21,50.21,0,0,0,7.38-6.94,93.57,93.57,0,0,0,7.53-9.81q3.78-5.61,7.45-11.9a64.47,64.47,0,0,1-3.48-9.71c-1.14-3.95-2.3-8.14-3.51-12.56s-2.41-8.85-3.62-13.27a110,110,0,0,0-3.86-11.8A36.23,36.23,0,0,0,301,41.82q-2.32-3.09-5-2.67a15.78,15.78,0,0,0-7,3.18,36.06,36.06,0,0,0-6.76,6.77,57,57,0,0,0-5.87,9.38c-1.76,3.49-5.56-9.94-2.59-12.83a50.27,50.27,0,0,1,9.81-7.43,32.81,32.81,0,0,1,11.53-4.06,16.44,16.44,0,0,1,10.29,1.38,24.11,24.11,0,0,1,7.87,6.53,44.91,44.91,0,0,1,5.86,9.71,112.39,112.39,0,0,1,4.28,11q1.8,5.5,3.1,10.32c.85,3.21,1.63,5.75,2.32,7.63q4.43-9,8.26-17.76t6.53-15.87q2.7-7.17,4.16-11.93t1.28-5.93c-.22-1.4.29-2,1.52-1.73a12.44,12.44,0,0,1,4.32,2.07,24.46,24.46,0,0,1,4.66,4.29,10.39,10.39,0,0,1,2.57,5c.33,2.1-.2,5.18-1.6,9.26a125.85,125.85,0,0,1-5.87,13.93q-3.8,7.8-8.89,16.78T335.26,96.65A137.9,137.9,0,0,0,343.32,112a67.6,67.6,0,0,0,9.51,12.43,37.75,37.75,0,0,0,10.82,7.86A20.56,20.56,0,0,0,375.78,134Z"/></g><path class="cls-9" d="M116,152.43l-1.93-2.22a6,6,0,0,1-3.43,1.06c-3.87,0-6.84-3.57-6.84-8s3-8,6.84-8,6.83,3.56,6.83,8a8.68,8.68,0,0,1-2,5.63l1.75,2Zm-1.89-5.1a6.85,6.85,0,0,0,1.21-4c0-3.3-2-5.87-4.68-5.87s-4.68,2.57-4.68,5.87,2,5.88,4.68,5.88a4.05,4.05,0,0,0,2-.55l-1.81-2.12,1.27-1.47Z"/><path class="cls-9" d="M128.45,151l-.06-1.76a3.57,3.57,0,0,1-3.09,2,3,3,0,0,1-2.72-1.41,8.06,8.06,0,0,1-.85-4.2v-5.79h2v5.59a6.43,6.43,0,0,0,.45,2.9,1.64,1.64,0,0,0,1.57.86,3.34,3.34,0,0,0,2.66-2v-7.37h1.94V151Z"/><path class="cls-9" d="M135.11,137.85v-2.36h1.95v2.36Zm0,13.15V139.87h1.95V151Z"/><path class="cls-9" d="M153.36,136.61a2.3,2.3,0,0,0-1.24-.33,1.35,1.35,0,0,0-1,.35,3,3,0,0,0-.44,2v1.23h2.55v2h-2.55V151h-1.94v-9.17h-1.08v-2h1.08v-1.43a5.85,5.85,0,0,1,.62-2.93,2.74,2.74,0,0,1,2.59-1.27,4.61,4.61,0,0,1,2,.52Z"/><path class="cls-9" d="M162.35,151l-.06-1.12a3.43,3.43,0,0,1-6.19-2c0-2.79,2.15-3.67,4.23-3.67a8.73,8.73,0,0,1,1.86.24v-.33c0-1.63-.64-2.57-2.17-2.57a5.89,5.89,0,0,0-3,1l-.54-1.83a8.52,8.52,0,0,1,3.85-1c2.73,0,3.81,1.76,3.81,4.64V151Zm-.16-5a6.52,6.52,0,0,0-1.62-.2c-1.11,0-2.57.35-2.57,1.93a1.61,1.61,0,0,0,1.78,1.74,3.52,3.52,0,0,0,2.41-1.23Z"/><path class="cls-9" d="M168.86,137.85v-2.36h1.94v2.36Zm0,13.15V139.87h1.94V151Z"/><path class="cls-9" d="M177.67,141.83v4.84c0,.28,0,.55,0,.88.05,1,.36,1.67,1.21,1.67a2.07,2.07,0,0,0,1.07-.31l.57,1.78a3.72,3.72,0,0,1-1.91.53,2.59,2.59,0,0,1-2.62-1.89,7.07,7.07,0,0,1-.29-2.2v-5.3h-1.24v-2h1.24l.1-2.62h1.85v2.62h2.62v2Z"/><path class="cls-9" d="M192.54,151H190.6V134.5h1.94Z"/><path class="cls-9" d="M203.07,151l-.06-1.12a3.43,3.43,0,0,1-6.19-2c0-2.79,2.16-3.67,4.23-3.67a8.81,8.81,0,0,1,1.87.24v-.33c0-1.63-.64-2.57-2.17-2.57a5.86,5.86,0,0,0-3,1l-.55-1.83a8.55,8.55,0,0,1,3.85-1c2.74,0,3.82,1.76,3.82,4.64V151Zm-.15-5a6.52,6.52,0,0,0-1.62-.2c-1.12,0-2.57.35-2.57,1.93a1.61,1.61,0,0,0,1.77,1.74,3.55,3.55,0,0,0,2.42-1.23Z"/><path class="cls-9" d="M221.08,136.61a2.36,2.36,0,0,0-1.25-.33,1.36,1.36,0,0,0-1,.35,3,3,0,0,0-.43,2v1.23h2.54v2h-2.54V151h-1.95v-9.17h-1.07v-2h1.07v-1.43a5.74,5.74,0,0,1,.63-2.93,2.73,2.73,0,0,1,2.58-1.27,4.57,4.57,0,0,1,2,.52Z"/><path class="cls-9" d="M228.44,149.35a2.85,2.85,0,0,0,2.77-1.76l1.36,1a4.43,4.43,0,0,1-4.23,2.64c-3,0-4.76-2.53-4.76-5.81s2.08-5.85,4.76-5.85,4.44,2.2,4.44,5.17a7.85,7.85,0,0,1-.1,1.23h-7.13C225.68,147.83,226.74,149.35,228.44,149.35Zm.9-15.47,1.95,3.7-1.14.86-1.81-3-1.79,3-1.15-.86,2-3.7Zm-1,7.62c-1.47,0-2.38,1.21-2.72,2.77h5.1A2.64,2.64,0,0,0,228.38,141.5Z"/><path class="cls-9" d="M238.89,141.83v4.84c0,.28,0,.55,0,.88.06,1,.36,1.67,1.21,1.67a2.07,2.07,0,0,0,1.07-.31l.57,1.78a3.72,3.72,0,0,1-1.91.53,2.59,2.59,0,0,1-2.62-1.89,7.08,7.08,0,0,1-.28-2.2v-5.3H235.7v-2H237l.09-2.62h1.85v2.62h2.62v2Z"/><path class="cls-9" d="M249.4,149.35a2.86,2.86,0,0,0,2.78-1.76l1.36,1a4.44,4.44,0,0,1-4.23,2.64c-3,0-4.76-2.53-4.76-5.81s2.08-5.85,4.76-5.85,4.43,2.2,4.43,5.17a7.9,7.9,0,0,1-.09,1.23h-7.14C246.65,147.83,247.7,149.35,249.4,149.35Zm-.05-7.85c-1.48,0-2.38,1.21-2.72,2.77h5.09A2.63,2.63,0,0,0,249.35,141.5Z"/><path class="cls-9" d="M266.8,146.23v-3.59c1.49-.59,3-1.27,3-3.21a2,2,0,0,0-1.83-2.09c-1.15,0-1.88.88-1.88,2.31v.24h-1.93v-.15c0-2.62,1.74-4.4,3.81-4.4a4,4,0,0,1,3.76,4,4.63,4.63,0,0,1-2.87,4.54v2.33Zm-.07,4.77v-2.73h2.19V151Z"/></g></g></g></svg>