<svg xmlns="http://www.w3.org/2000/svg" xmlns:xlink="http://www.w3.org/1999/xlink" viewBox="0 0 96.44 129.73"><defs><style>.cls-1{isolation:isolate;}.cls-2,.cls-6{fill:#f1f9fe;}.cls-3{fill:url(#Fondu_de_ciel);}.cls-4{fill:#3299cc;opacity:0.3;}.cls-4,.cls-5{mix-blend-mode:multiply;}.cls-5{fill:#f2f2f2;}.cls-6{mix-blend-mode:screen;opacity:0.2;}.cls-7{fill:#fff;}</style><linearGradient id="Fondu_de_ciel" x1="6.61" y1="60.32" x2="92.52" y2="60.32" gradientUnits="userSpaceOnUse"><stop offset="0" stop-color="#2581c4"/><stop offset="1" stop-color="#2581c4" stop-opacity="0"/></linearGradient></defs><g class="cls-1"><g id="Calque_2" data-name="Calque 2"><g id="Logo_version_mini" data-name="Logo version mini"><g id="Verre_de_bierre" data-name="Verre de bierre"><path class="cls-2" d="M82.77,84.43c6.63-38.83,11.6-67.91,11.6-67.91,2.48.19,3.06-4.49-.44-4.48L59.25,6.11,24.58.19C21.47-1,20.11,3.55,22.67,4.27c0,0-5,29.08-11.6,67.91S-1.72,103.56.82,112.7C5.55,124.4,70.55,135.52,79,126.06,84.41,118.27,76.13,123.26,82.77,84.43Z"/><path class="cls-3" d="M92.5,16.2l0-.31L24.59,4.29C21.39,21.1,12,85.47,6.61,98.76c0,0-1.39,9.48,34.16,15.56S78.15,111,78.15,111C77.44,97,90,32.77,92.5,16.2Z"/><path class="cls-4" d="M80.9,84.11c0-.42,11.66-67.85,11.62-68.22l-6.69-1.14C80.12,38.43,80.69,71.24,70.3,95.42,54.41,115.55,19.76,110.73,10,87A104.7,104.7,0,0,1,6.61,98.76s-1.39,9.48,34.16,15.56S78.15,111,78.15,111C78.09,105.58,78.64,97.36,80.9,84.11Z"/><path class="cls-5" d="M82.77,84.43c6.63-38.83,11.6-67.91,11.6-67.91a2,2,0,0,0,2-1.85c.36-3.2-3.48-2.52-5.34-3.12-7.68,19.77-9.68,41.28-13.19,62.06-.86,13.22-.72,28.53-10.2,39-11.74,13.82-31.68,12-46.28,3.79-6.68-3.86-14.62-5.6-18.95-12.71-13.71,17.35,34.6,22.56,36.18,23.16,0,0,34.93,7,40.35-.79S76.13,123.26,82.77,84.43Z"/><path class="cls-6" d="M21.79,88.69c.4,2.23.66,4.67,2.47,6.17L38.42,12l-5.05-.86C33,14.93,19.21,87.46,21.79,88.69Z"/><path class="cls-6" d="M34.67,84.31c.43,2,.85,4.18,2.59,5.43A197.72,197.72,0,0,0,49.55,17.82l-5-.86C44.22,20.44,32.08,83,34.67,84.31Z"/><path class="cls-7" d="M89.75,32.32c0-.37,2.81-16.06,2.77-16.43L24.59,4.29l-2.8,16.42Z"/></g></g></g></g></svg>